<svg xmlns="http://www.w3.org/2000/svg" viewBox="0 0 56.43 58.6"><defs><style>.a3696043-3f84-4a1a-9d39-656279a47276{fill:none;stroke:#0c6c37;stroke-linecap:round;stroke-linejoin:round;stroke-width:2px;}</style></defs><g id="fbe205cb-47b8-4518-9261-e2a175d1fd8c" data-name="Layer 2"><g id="b3204507-fe41-46c3-b0c9-edad1f4017d5" data-name="Layer 1"><g id="fff0c844-e8f6-4d49-bb31-283f61e59254" data-name="Graphic elements"><path class="a3696043-3f84-4a1a-9d39-656279a47276" d="M49.28,32.74a6,6,0,1,0-3.5-10.88,6.56,6.56,0,0,0-10-8.33,8.77,8.77,0,1,0-16.13-.64A6.56,6.56,0,0,0,9.28,18.08a6.59,6.59,0,0,0,.88,3.45,5.94,5.94,0,0,0-3.34-.86A6,6,0,0,0,7,32.74Z"/><line class="a3696043-3f84-4a1a-9d39-656279a47276" x1="28.22" y1="17.31" x2="28.22" y2="57.6"/><line class="a3696043-3f84-4a1a-9d39-656279a47276" x1="17.32" y1="21.56" x2="27.94" y2="30.05"/><path class="a3696043-3f84-4a1a-9d39-656279a47276" d="M28.56,23.68c.38-.12,7.38-6.62,7.38-6.62"/></g></g></g></svg>