<svg xmlns="http://www.w3.org/2000/svg" viewBox="0 0 70.09 65.14"><defs><style>.e39c8bec-88d7-485c-82fa-3729d85894ab{fill:none;stroke:#f4efdf;stroke-linecap:round;stroke-linejoin:round;stroke-width:2px;}.ba2eec2f-2627-4b46-8330-dcbc7e250d26{font-size:9px;fill:#f4efdf;font-family:Poppins-Light, Poppins;font-weight:300;letter-spacing:0.12em;}.baf908c2-cef3-4df2-b480-1480d9dba58b{letter-spacing:0.2em;}</style></defs><g id="e9fe9af8-c1b7-4bee-a656-58018a74580d" data-name="Layer 2"><g id="ad63ee1f-9527-43ce-95ed-0c8c26508d6e" data-name="Business card (Front)"><g id="a677e166-c9ba-4ace-991e-be30414d0514" data-name="Graphic elements"><path class="e39c8bec-88d7-485c-82fa-3729d85894ab" d="M50.79,33.73A6.23,6.23,0,1,0,51,21.28a6.17,6.17,0,0,0-3.82,1.23,6.69,6.69,0,0,0,1.12-3.85,6.76,6.76,0,0,0-11.46-4.74,9,9,0,1,0-16.63-.66,6.76,6.76,0,0,0-9.75,8.91A6.23,6.23,0,1,0,7.23,33.73Z"/><line class="e39c8bec-88d7-485c-82fa-3729d85894ab" x1="29.06" y1="17.82" x2="29.06" y2="59.37"/><line class="e39c8bec-88d7-485c-82fa-3729d85894ab" x1="17.83" y1="22.2" x2="28.78" y2="30.96"/><path class="e39c8bec-88d7-485c-82fa-3729d85894ab" d="M29.42,24.39c.39-.13,7.61-6.83,7.61-6.83"/></g><g id="e45068bb-7c0d-4cc0-a7e6-874047bd7b90" data-name="Text"><text class="ba2eec2f-2627-4b46-8330-dcbc7e250d26" transform="translate(33.63 50.11)">dream<tspan class="baf908c2-cef3-4df2-b480-1480d9dba58b"><tspan x="0" y="9.95">GREEN</tspan></tspan></text></g></g></g></svg>