<svg xmlns="http://www.w3.org/2000/svg" viewBox="0 0 70.09 65.14"><defs><style>.a3486ab0-54ad-4e54-a161-44661f41e6c8{fill:none;stroke:#006b2b;stroke-linecap:round;stroke-linejoin:round;stroke-width:2px;}.b21a18ec-16b3-4a78-a8be-1c9227db8b05{font-size:9px;fill:#006b2b;font-family:Poppins-Light, Poppins;font-weight:300;letter-spacing:0.12em;}.ba85d9b2-f28b-4d21-92cd-1e0ee28efe70{letter-spacing:0.2em;}</style></defs><g id="ea39f5fe-2dbf-41f4-aad3-49524af4e973" data-name="Layer 2"><g id="ab9ae47f-bb6a-4a11-80a4-70dd44305d73" data-name="Business card (Front)"><g id="fcf30ad8-167f-4345-b879-a65d5be54e7f" data-name="Graphic elements"><path class="a3486ab0-54ad-4e54-a161-44661f41e6c8" d="M50.79,33.73A6.23,6.23,0,1,0,51,21.28a6.17,6.17,0,0,0-3.82,1.23,6.69,6.69,0,0,0,1.12-3.85,6.76,6.76,0,0,0-11.46-4.74,9,9,0,1,0-16.63-.66,6.76,6.76,0,0,0-9.75,8.91A6.23,6.23,0,1,0,7.23,33.73Z"/><line class="a3486ab0-54ad-4e54-a161-44661f41e6c8" x1="29.06" y1="17.82" x2="29.06" y2="59.37"/><line class="a3486ab0-54ad-4e54-a161-44661f41e6c8" x1="17.83" y1="22.2" x2="28.78" y2="30.96"/><path class="a3486ab0-54ad-4e54-a161-44661f41e6c8" d="M29.42,24.39c.39-.13,7.61-6.83,7.61-6.83"/></g><g id="ea38e4d4-5b0b-4c37-a062-7844dfd4709b" data-name="Text"><text class="b21a18ec-16b3-4a78-a8be-1c9227db8b05" transform="translate(33.63 50.11)">dream<tspan class="ba85d9b2-f28b-4d21-92cd-1e0ee28efe70"><tspan x="0" y="9.95">GREEN</tspan></tspan></text></g></g></g></svg>